<svg width="24" height="24" viewBox="0 0 24 24" fill="none" xmlns="http://www.w3.org/2000/svg">
<path d="M12.71 17.71L17.71 12.71C17.801 12.6149 17.8724 12.5028 17.92 12.38C18.02 12.1365 18.02 11.8635 17.92 11.62C17.8724 11.4973 17.801 11.3851 17.71 11.29L12.71 6.29C12.6167 6.19676 12.5061 6.1228 12.3842 6.07234C12.2624 6.02188 12.1318 5.99591 12 5.99591C11.7337 5.99591 11.4783 6.1017 11.29 6.29C11.1017 6.47831 10.9959 6.7337 10.9959 7C10.9959 7.2663 11.1017 7.5217 11.29 7.71L14.59 11H6.99998C6.73477 11 6.48041 11.1054 6.29287 11.2929C6.10534 11.4804 5.99998 11.7348 5.99998 12C5.99998 12.2652 6.10534 12.5196 6.29287 12.7071C6.48041 12.8946 6.73477 13 6.99998 13H14.59L11.29 16.29C11.1963 16.383 11.1219 16.4936 11.0711 16.6154C11.0203 16.7373 10.9942 16.868 10.9942 17C10.9942 17.132 11.0203 17.2627 11.0711 17.3846C11.1219 17.5064 11.1963 17.617 11.29 17.71C11.3829 17.8037 11.4935 17.8781 11.6154 17.9289C11.7373 17.9797 11.868 18.0058 12 18.0058C12.132 18.0058 12.2627 17.9797 12.3846 17.9289C12.5064 17.8781 12.617 17.8037 12.71 17.71Z" fill="black"/>
</svg>
