<svg width="25" height="25" viewBox="0 0 25 25" fill="none" xmlns="http://www.w3.org/2000/svg">
<path d="M9.37492 10.4167L12.7997 12.9852C13.2182 13.2991 13.8078 13.2374 14.1523 12.8437L20.8333 5.20833" stroke="black" stroke-width="2" stroke-linecap="round"/>
<path d="M21.875 12.5C21.875 14.4588 21.2614 16.3685 20.1204 17.9607C18.9795 19.553 17.3684 20.7478 15.5135 21.3775C13.6586 22.0071 11.6531 22.0399 9.77858 21.4713C7.90408 20.9027 6.25478 19.7612 5.06231 18.2071C3.86984 16.6531 3.19411 14.7645 3.13002 12.8067C3.06593 10.8489 3.6167 8.92025 4.70497 7.29153C5.79325 5.66281 7.36436 4.41589 9.19766 3.72588C11.0309 3.03588 13.0343 2.93746 14.9264 3.44445" stroke="black" stroke-width="2" stroke-linecap="round"/>
</svg>
