<svg width="36" height="36" viewBox="0 0 36 36" fill="none" xmlns="http://www.w3.org/2000/svg">
<path d="M13.5 15L18.7581 18.9436C19.1766 19.2574 19.7662 19.1957 20.1107 18.8021L30 7.5" stroke="white" stroke-width="5" stroke-linecap="round"/>
<path d="M31.5 18C31.5 20.8207 30.6164 23.5706 28.9734 25.8634C27.3304 28.1563 25.0105 29.8769 22.3394 30.7836C19.6684 31.6903 16.7804 31.7375 14.0812 30.9187C11.3819 30.0999 9.00689 28.4561 7.28973 26.2183C5.57257 23.9804 4.59952 21.2609 4.50723 18.4417C4.41494 15.6225 5.20804 12.8452 6.77516 10.4998C8.34228 8.15445 10.6047 6.35887 13.2446 5.36527C15.8846 4.37167 18.7694 4.22994 21.4941 4.96" stroke="white" stroke-width="5" stroke-linecap="round"/>
</svg>
