<svg width="294" height="20" viewBox="0 0 294 20" fill="none" xmlns="http://www.w3.org/2000/svg">
<path d="M2.8539 10.3342L1.66116 10.028L2.24947 4.18512H8.26963V5.56323H3.51475L3.16015 8.75464C3.37506 8.63107 3.64638 8.51555 3.97412 8.4081C4.30723 8.30064 4.6887 8.24692 5.11851 8.24692C5.66116 8.24692 6.14739 8.34094 6.57721 8.52898C7.00703 8.71166 7.37238 8.97492 7.67325 9.31878C7.9795 9.66263 8.21321 10.0763 8.3744 10.5599C8.53558 11.0434 8.61617 11.5834 8.61617 12.1798C8.61617 12.7439 8.53826 13.2624 8.38245 13.7352C8.23202 14.208 8.00368 14.6217 7.69743 14.9763C7.39118 15.3255 7.00435 15.5968 6.53692 15.7902C6.07486 15.9837 5.52953 16.0804 4.90092 16.0804C4.42812 16.0804 3.97949 16.0159 3.55505 15.887C3.13597 15.7526 2.75988 15.5512 2.42677 15.2825C2.09903 15.0085 1.8304 14.67 1.62086 14.2671C1.4167 13.8587 1.28775 13.3806 1.23402 12.8325H2.65243C2.7169 13.2731 2.84585 13.6438 3.03926 13.9447C3.23268 14.2456 3.4852 14.4739 3.79682 14.6297C4.11381 14.7802 4.48184 14.8554 4.90092 14.8554C5.25552 14.8554 5.56983 14.7936 5.84383 14.67C6.11784 14.5465 6.34887 14.3692 6.53692 14.1381C6.72496 13.9071 6.86734 13.6277 6.96405 13.3C7.06613 12.9722 7.11717 12.6042 7.11717 12.1959C7.11717 11.8252 7.06613 11.4813 6.96405 11.1643C6.86197 10.8473 6.70885 10.5706 6.50468 10.3342C6.30589 10.0978 6.06143 9.91515 5.7713 9.78621C5.48117 9.65189 5.14806 9.58473 4.77197 9.58473C4.27231 9.58473 3.89353 9.65189 3.63564 9.78621C3.38312 9.92052 3.12254 10.1032 2.8539 10.3342ZM13.2434 15.1294C13.2434 14.8769 13.3213 14.6647 13.4771 14.4927C13.6383 14.3154 13.8693 14.2268 14.1702 14.2268C14.4711 14.2268 14.6994 14.3154 14.8552 14.4927C15.0164 14.6647 15.097 14.8769 15.097 15.1294C15.097 15.3765 15.0164 15.5861 14.8552 15.758C14.6994 15.9299 14.4711 16.0159 14.1702 16.0159C13.8693 16.0159 13.6383 15.9299 13.4771 15.758C13.3213 15.5861 13.2434 15.3765 13.2434 15.1294ZM27.5818 9.1173V10.9064C27.5818 11.8681 27.4959 12.6794 27.3239 13.3403C27.152 14.0011 26.9049 14.533 26.5825 14.936C26.2601 15.3389 25.8706 15.6317 25.4139 15.8144C24.9626 15.9917 24.4522 16.0804 23.8827 16.0804C23.4314 16.0804 23.015 16.024 22.6335 15.9111C22.2521 15.7983 21.9082 15.6183 21.602 15.3712C21.3011 15.1187 21.0432 14.7909 20.8283 14.388C20.6134 13.985 20.4495 13.4961 20.3367 12.9212C20.2239 12.3463 20.1675 11.6747 20.1675 10.9064V9.1173C20.1675 8.15558 20.2534 7.34967 20.4253 6.69957C20.6026 6.04946 20.8525 5.52831 21.1748 5.1361C21.4972 4.73852 21.884 4.45376 22.3354 4.28183C22.792 4.1099 23.3024 4.02394 23.8666 4.02394C24.3233 4.02394 24.7423 4.08035 25.1238 4.19318C25.5106 4.30064 25.8545 4.47525 26.1554 4.71702C26.4562 4.95343 26.7115 5.27042 26.921 5.668C27.1359 6.06021 27.2998 6.54107 27.4126 7.11058C27.5254 7.68009 27.5818 8.349 27.5818 9.1173ZM26.0828 11.1482V8.86747C26.0828 8.34094 26.0506 7.87888 25.9861 7.4813C25.927 7.07834 25.8384 6.73449 25.7202 6.44973C25.602 6.16498 25.4515 5.93395 25.2689 5.75665C25.0916 5.57935 24.8847 5.4504 24.6483 5.36981C24.4173 5.28385 24.1567 5.24087 23.8666 5.24087C23.512 5.24087 23.1977 5.30803 22.9237 5.44234C22.6497 5.57129 22.4186 5.77814 22.2306 6.0629C22.0479 6.34765 21.9082 6.72106 21.8115 7.18311C21.7148 7.64517 21.6665 8.20662 21.6665 8.86747V11.1482C21.6665 11.6747 21.696 12.1395 21.7551 12.5424C21.8196 12.9454 21.9136 13.2946 22.0372 13.5901C22.1607 13.8802 22.3112 14.1193 22.4885 14.3074C22.6658 14.4954 22.8699 14.6351 23.101 14.7264C23.3374 14.8124 23.598 14.8554 23.8827 14.8554C24.2481 14.8554 24.5677 14.7855 24.8417 14.6458C25.1158 14.5062 25.3441 14.2886 25.5268 13.9931C25.7148 13.6922 25.8545 13.308 25.9458 12.8406C26.0372 12.3678 26.0828 11.8037 26.0828 11.1482Z" fill="#00ED96"/>
<path d="M55.0235 14.654V15.9193H48.8099V14.654H55.0235ZM49.1242 4.18518V15.9193H47.5688V4.18518H49.1242ZM54.2014 9.23019V10.4955H48.8099V9.23019H54.2014ZM54.9429 4.18518V5.45852H48.8099V4.18518H54.9429ZM60.5372 7.19929L62.4472 10.3746L64.3814 7.19929H66.1302L63.2773 11.5029L66.2189 15.9193H64.4942L62.4794 12.6473L60.4646 15.9193H58.7319L61.6655 11.5029L58.8206 7.19929H60.5372ZM73.8521 14.8554C74.2067 14.8554 74.5345 14.7829 74.8353 14.6379C75.1362 14.4928 75.3833 14.294 75.5768 14.0415C75.7702 13.7836 75.8803 13.4908 75.9072 13.163H77.3256C77.2987 13.6788 77.1241 14.1597 76.8018 14.6056C76.4848 15.0462 76.0684 15.4035 75.5526 15.6775C75.0368 15.9461 74.47 16.0804 73.8521 16.0804C73.1966 16.0804 72.6244 15.9649 72.1355 15.7339C71.652 15.5029 71.249 15.1859 70.9267 14.7829C70.6097 14.38 70.3706 13.9179 70.2094 13.3967C70.0536 12.8702 69.9757 12.3141 69.9757 11.7285V11.39C69.9757 10.8044 70.0536 10.251 70.2094 9.72985C70.3706 9.20332 70.6097 8.73858 70.9267 8.33563C71.249 7.93267 71.652 7.61568 72.1355 7.38465C72.6244 7.15362 73.1966 7.03811 73.8521 7.03811C74.5345 7.03811 75.1308 7.1778 75.6412 7.45718C76.1517 7.73119 76.5519 8.10729 76.842 8.58546C77.1375 9.05826 77.2987 9.59553 77.3256 10.1973H75.9072C75.8803 9.83731 75.7782 9.51226 75.6009 9.22213C75.429 8.932 75.1926 8.70097 74.8917 8.52905C74.5962 8.35174 74.2497 8.26309 73.8521 8.26309C73.3954 8.26309 73.0113 8.35443 72.6997 8.5371C72.3934 8.7144 72.149 8.95618 71.9663 9.26242C71.789 9.5633 71.66 9.89909 71.5794 10.2698C71.5042 10.6352 71.4666 11.0086 71.4666 11.39V11.7285C71.4666 12.11 71.5042 12.4861 71.5794 12.8568C71.6547 13.2275 71.7809 13.5633 71.9582 13.8642C72.1409 14.1651 72.3854 14.4068 72.6916 14.5895C73.0032 14.7668 73.3901 14.8554 73.8521 14.8554ZM85.4263 16.0804C84.8192 16.0804 84.2685 15.9784 83.7742 15.7742C83.2853 15.5646 82.8635 15.2718 82.5089 14.8957C82.1597 14.5197 81.891 14.0737 81.703 13.5579C81.5149 13.0421 81.4209 12.478 81.4209 11.8655V11.527C81.4209 10.8178 81.5257 10.1865 81.7352 9.63314C81.9448 9.07438 82.2295 8.60158 82.5895 8.21474C82.9495 7.8279 83.3578 7.53509 83.8145 7.3363C84.2712 7.13751 84.744 7.03811 85.2329 7.03811C85.8561 7.03811 86.3934 7.14556 86.8447 7.36047C87.3014 7.57538 87.6748 7.87626 87.9649 8.26309C88.255 8.64456 88.47 9.09587 88.6096 9.61703C88.7493 10.1328 88.8192 10.6969 88.8192 11.3094V11.9783H82.3074V10.7614H87.3282V10.6486C87.3068 10.2618 87.2262 9.88566 87.0865 9.52032C86.9522 9.15497 86.7372 8.8541 86.4417 8.6177C86.1462 8.38129 85.7433 8.26309 85.2329 8.26309C84.8944 8.26309 84.5828 8.33563 84.298 8.48069C84.0133 8.62038 83.7688 8.82992 83.5646 9.1093C83.3605 9.38868 83.202 9.72985 83.0892 10.1328C82.9763 10.5358 82.9199 11.0005 82.9199 11.527V11.8655C82.9199 12.2792 82.9763 12.6687 83.0892 13.0341C83.2074 13.3941 83.3766 13.7111 83.5969 13.9851C83.8225 14.2591 84.0939 14.474 84.4108 14.6298C84.7332 14.7856 85.0986 14.8635 85.5069 14.8635C86.0334 14.8635 86.4794 14.7561 86.8447 14.5411C87.21 14.3262 87.5297 14.0388 87.8037 13.6788L88.7064 14.3961C88.5183 14.6808 88.2792 14.9522 87.9891 15.21C87.699 15.4679 87.3417 15.6775 86.9172 15.8387C86.4982 15.9998 86.0012 16.0804 85.4263 16.0804ZM94.9857 3.54046V15.9193H93.4867V3.54046H94.9857ZM101.805 3.54046V15.9193H100.306V3.54046H101.805ZM110.623 16.0804C110.016 16.0804 109.465 15.9784 108.971 15.7742C108.482 15.5646 108.06 15.2718 107.706 14.8957C107.356 14.5197 107.088 14.0737 106.9 13.5579C106.712 13.0421 106.618 12.478 106.618 11.8655V11.527C106.618 10.8178 106.722 10.1865 106.932 9.63314C107.141 9.07438 107.426 8.60158 107.786 8.21474C108.146 7.8279 108.554 7.53509 109.011 7.3363C109.468 7.13751 109.941 7.03811 110.43 7.03811C111.053 7.03811 111.59 7.14556 112.041 7.36047C112.498 7.57538 112.871 7.87626 113.162 8.26309C113.452 8.64456 113.667 9.09587 113.806 9.61703C113.946 10.1328 114.016 10.6969 114.016 11.3094V11.9783H107.504V10.7614H112.525V10.6486C112.503 10.2618 112.423 9.88566 112.283 9.52032C112.149 9.15497 111.934 8.8541 111.638 8.6177C111.343 8.38129 110.94 8.26309 110.43 8.26309C110.091 8.26309 109.779 8.33563 109.495 8.48069C109.21 8.62038 108.965 8.82992 108.761 9.1093C108.557 9.38868 108.399 9.72985 108.286 10.1328C108.173 10.5358 108.117 11.0005 108.117 11.527V11.8655C108.117 12.2792 108.173 12.6687 108.286 13.0341C108.404 13.3941 108.573 13.7111 108.794 13.9851C109.019 14.2591 109.291 14.474 109.607 14.6298C109.93 14.7856 110.295 14.8635 110.704 14.8635C111.23 14.8635 111.676 14.7561 112.041 14.5411C112.407 14.3262 112.726 14.0388 113 13.6788L113.903 14.3961C113.715 14.6808 113.476 14.9522 113.186 15.21C112.896 15.4679 112.538 15.6775 112.114 15.8387C111.695 15.9998 111.198 16.0804 110.623 16.0804ZM120.053 9.06095V15.9193H118.562V7.19929H119.973L120.053 9.06095ZM119.699 11.2288L119.078 11.2047C119.084 10.6083 119.172 10.0576 119.344 9.55255C119.516 9.04214 119.758 8.59889 120.07 8.2228C120.381 7.84671 120.752 7.55658 121.182 7.35242C121.617 7.14288 122.098 7.03811 122.624 7.03811C123.054 7.03811 123.441 7.09721 123.785 7.21541C124.129 7.32824 124.421 7.51091 124.663 7.76343C124.91 8.01595 125.098 8.34369 125.227 8.74664C125.356 9.14422 125.421 9.63046 125.421 10.2053V15.9193H123.922V10.1892C123.922 9.73254 123.855 9.36719 123.72 9.09318C123.586 8.8138 123.39 8.61232 123.132 8.48875C122.874 8.3598 122.557 8.29533 122.181 8.29533C121.81 8.29533 121.472 8.37324 121.166 8.52905C120.865 8.68485 120.604 8.89976 120.384 9.17377C120.169 9.44778 120 9.76209 119.876 10.1167C119.758 10.4659 119.699 10.8366 119.699 11.2288ZM134.142 7.19929V8.34369H129.427V7.19929H134.142ZM131.023 5.07975H132.514V13.7594C132.514 14.0549 132.56 14.2779 132.651 14.4283C132.742 14.5788 132.861 14.6781 133.006 14.7265C133.151 14.7749 133.307 14.799 133.473 14.799C133.597 14.799 133.726 14.7883 133.86 14.7668C134 14.7399 134.104 14.7184 134.174 14.7023L134.182 15.9193C134.064 15.9569 133.908 15.9918 133.715 16.024C133.527 16.0616 133.298 16.0804 133.03 16.0804C132.665 16.0804 132.329 16.0079 132.022 15.8628C131.716 15.7178 131.472 15.476 131.289 15.1375C131.112 14.7937 131.023 14.3316 131.023 13.7513V5.07975Z" fill="#00ED96"/>
<path d="M151.547 10.02V9.68956C151.547 9.2275 151.692 8.84604 151.982 8.54516C152.277 8.24429 152.678 8.09385 153.183 8.09385C153.693 8.09385 154.096 8.24429 154.392 8.54516C154.687 8.84604 154.835 9.2275 154.835 9.68956V10.02C154.835 10.4767 154.687 10.8554 154.392 11.1563C154.101 11.4518 153.701 11.5996 153.191 11.5996C152.686 11.5996 152.285 11.4518 151.99 11.1563C151.694 10.8554 151.547 10.4767 151.547 10.02ZM168.455 10.3343L167.262 10.028L167.85 4.18518H173.87V5.56329H169.116L168.761 8.7547C168.976 8.63113 169.247 8.51561 169.575 8.40816C169.908 8.3007 170.29 8.24698 170.719 8.24698C171.262 8.24698 171.748 8.341 172.178 8.52905C172.608 8.71172 172.973 8.97498 173.274 9.31884C173.58 9.66269 173.814 10.0764 173.975 10.5599C174.136 11.0435 174.217 11.5834 174.217 12.1798C174.217 12.744 174.139 13.2624 173.983 13.7352C173.833 14.208 173.605 14.6217 173.298 14.9763C172.992 15.3256 172.605 15.5969 172.138 15.7903C171.676 15.9837 171.13 16.0804 170.502 16.0804C170.029 16.0804 169.58 16.016 169.156 15.887C168.737 15.7527 168.361 15.5512 168.028 15.2826C167.7 15.0086 167.431 14.6701 167.222 14.2671C167.018 13.8588 166.889 13.3806 166.835 12.8326H168.253C168.318 13.2732 168.447 13.6439 168.64 13.9448C168.834 14.2456 169.086 14.474 169.398 14.6298C169.715 14.7802 170.083 14.8554 170.502 14.8554C170.856 14.8554 171.171 14.7937 171.445 14.6701C171.719 14.5465 171.95 14.3692 172.138 14.1382C172.326 13.9072 172.468 13.6278 172.565 13.3C172.667 12.9723 172.718 12.6043 172.718 12.1959C172.718 11.8252 172.667 11.4814 172.565 11.1644C172.463 10.8474 172.31 10.5707 172.106 10.3343C171.907 10.0979 171.662 9.91521 171.372 9.78627C171.082 9.65195 170.749 9.58479 170.373 9.58479C169.873 9.58479 169.494 9.65195 169.236 9.78627C168.984 9.92059 168.723 10.1033 168.455 10.3343ZM186.025 9.11736V10.9065C186.025 11.8682 185.939 12.6795 185.767 13.3403C185.595 14.0012 185.348 14.5331 185.026 14.936C184.703 15.339 184.314 15.6318 183.857 15.8145C183.406 15.9918 182.895 16.0804 182.326 16.0804C181.874 16.0804 181.458 16.024 181.077 15.9112C180.695 15.7984 180.351 15.6184 180.045 15.3712C179.744 15.1187 179.486 14.791 179.271 14.388C179.056 13.9851 178.893 13.4961 178.78 12.9213C178.667 12.3464 178.611 11.6748 178.611 10.9065V9.11736C178.611 8.15564 178.696 7.34973 178.868 6.69963C179.046 6.04953 179.296 5.52837 179.618 5.13616C179.94 4.73858 180.327 4.45382 180.778 4.28189C181.235 4.10997 181.746 4.024 182.31 4.024C182.766 4.024 183.185 4.08042 183.567 4.19324C183.954 4.3007 184.298 4.47531 184.598 4.71709C184.899 4.95349 185.155 5.27048 185.364 5.66806C185.579 6.06027 185.743 6.54113 185.856 7.11064C185.968 7.68015 186.025 8.34906 186.025 9.11736ZM184.526 11.1483V8.86753C184.526 8.341 184.494 7.87894 184.429 7.48136C184.37 7.07841 184.281 6.73455 184.163 6.44979C184.045 6.16504 183.895 5.93401 183.712 5.75671C183.535 5.57941 183.328 5.45046 183.091 5.36987C182.86 5.28391 182.6 5.24093 182.31 5.24093C181.955 5.24093 181.641 5.30809 181.367 5.44241C181.093 5.57135 180.862 5.7782 180.674 6.06296C180.491 6.34771 180.351 6.72112 180.255 7.18317C180.158 7.64523 180.11 8.20668 180.11 8.86753V11.1483C180.11 11.6748 180.139 12.1395 180.198 12.5425C180.263 12.9454 180.357 13.2947 180.48 13.5902C180.604 13.8803 180.754 14.1194 180.932 14.3074C181.109 14.4955 181.313 14.6352 181.544 14.7265C181.78 14.8125 182.041 14.8554 182.326 14.8554C182.691 14.8554 183.011 14.7856 183.285 14.6459C183.559 14.5062 183.787 14.2886 183.97 13.9931C184.158 13.6922 184.298 13.3081 184.389 12.8407C184.48 12.3679 184.526 11.8037 184.526 11.1483ZM198.115 9.11736V10.9065C198.115 11.8682 198.029 12.6795 197.857 13.3403C197.685 14.0012 197.438 14.5331 197.116 14.936C196.793 15.339 196.404 15.6318 195.947 15.8145C195.496 15.9918 194.985 16.0804 194.416 16.0804C193.964 16.0804 193.548 16.024 193.167 15.9112C192.785 15.7984 192.441 15.6184 192.135 15.3712C191.834 15.1187 191.576 14.791 191.361 14.388C191.146 13.9851 190.983 13.4961 190.87 12.9213C190.757 12.3464 190.7 11.6748 190.7 10.9065V9.11736C190.7 8.15564 190.786 7.34973 190.958 6.69963C191.136 6.04953 191.386 5.52837 191.708 5.13616C192.03 4.73858 192.417 4.45382 192.868 4.28189C193.325 4.10997 193.835 4.024 194.4 4.024C194.856 4.024 195.275 4.08042 195.657 4.19324C196.044 4.3007 196.388 4.47531 196.688 4.71709C196.989 4.95349 197.244 5.27048 197.454 5.66806C197.669 6.06027 197.833 6.54113 197.946 7.11064C198.058 7.68015 198.115 8.34906 198.115 9.11736ZM196.616 11.1483V8.86753C196.616 8.341 196.584 7.87894 196.519 7.48136C196.46 7.07841 196.371 6.73455 196.253 6.44979C196.135 6.16504 195.985 5.93401 195.802 5.75671C195.625 5.57941 195.418 5.45046 195.181 5.36987C194.95 5.28391 194.69 5.24093 194.4 5.24093C194.045 5.24093 193.731 5.30809 193.457 5.44241C193.183 5.57135 192.952 5.7782 192.764 6.06296C192.581 6.34771 192.441 6.72112 192.345 7.18317C192.248 7.64523 192.199 8.20668 192.199 8.86753V11.1483C192.199 11.6748 192.229 12.1395 192.288 12.5425C192.353 12.9454 192.447 13.2947 192.57 13.5902C192.694 13.8803 192.844 14.1194 193.022 14.3074C193.199 14.4955 193.403 14.6352 193.634 14.7265C193.87 14.8125 194.131 14.8554 194.416 14.8554C194.781 14.8554 195.101 14.7856 195.375 14.6459C195.649 14.5062 195.877 14.2886 196.06 13.9931C196.248 13.6922 196.388 13.3081 196.479 12.8407C196.57 12.3679 196.616 11.8037 196.616 11.1483ZM210.535 9.62508V11.0274H202.492V9.62508H210.535ZM207.263 6.19996V14.7426H205.772V6.19996H207.263ZM223.561 8.56934V15.9193H222.07V7.19929H223.521L223.561 8.56934ZM226.285 7.15094L226.277 8.5371C226.154 8.51024 226.035 8.49412 225.923 8.48875C225.815 8.478 225.692 8.47263 225.552 8.47263C225.208 8.47263 224.905 8.52636 224.641 8.63381C224.378 8.74127 224.155 8.89171 223.972 9.08512C223.79 9.27854 223.645 9.50957 223.537 9.77821C223.435 10.0415 223.368 10.3316 223.336 10.6486L222.917 10.8904C222.917 10.3638 222.968 9.86954 223.07 9.40749C223.177 8.94543 223.341 8.5371 223.561 8.1825C223.782 7.82253 224.061 7.54315 224.399 7.34436C224.743 7.14019 225.152 7.03811 225.624 7.03811C225.732 7.03811 225.856 7.05154 225.995 7.07841C226.135 7.0999 226.232 7.12407 226.285 7.15094ZM233.927 16.0804C233.32 16.0804 232.769 15.9784 232.275 15.7742C231.786 15.5646 231.364 15.2718 231.009 14.8957C230.66 14.5197 230.391 14.0737 230.203 13.5579C230.015 13.0421 229.921 12.478 229.921 11.8655V11.527C229.921 10.8178 230.026 10.1865 230.236 9.63314C230.445 9.07438 230.73 8.60158 231.09 8.21474C231.45 7.8279 231.858 7.53509 232.315 7.3363C232.772 7.13751 233.244 7.03811 233.733 7.03811C234.356 7.03811 234.894 7.14556 235.345 7.36047C235.802 7.57538 236.175 7.87626 236.465 8.26309C236.755 8.64456 236.97 9.09587 237.11 9.61703C237.25 10.1328 237.32 10.6969 237.32 11.3094V11.9783H230.808V10.7614H235.829V10.6486C235.807 10.2618 235.727 9.88566 235.587 9.52032C235.453 9.15497 235.238 8.8541 234.942 8.6177C234.647 8.38129 234.244 8.26309 233.733 8.26309C233.395 8.26309 233.083 8.33563 232.798 8.48069C232.514 8.62038 232.269 8.82992 232.065 9.1093C231.861 9.38868 231.702 9.72985 231.59 10.1328C231.477 10.5358 231.42 11.0005 231.42 11.527V11.8655C231.42 12.2792 231.477 12.6687 231.59 13.0341C231.708 13.3941 231.877 13.7111 232.097 13.9851C232.323 14.2591 232.594 14.474 232.911 14.6298C233.234 14.7856 233.599 14.8635 234.007 14.8635C234.534 14.8635 234.98 14.7561 235.345 14.5411C235.71 14.3262 236.03 14.0388 236.304 13.6788L237.207 14.3961C237.019 14.6808 236.78 14.9522 236.489 15.21C236.199 15.4679 235.842 15.6775 235.418 15.8387C234.999 15.9998 234.502 16.0804 233.927 16.0804ZM244.405 14.5734L246.79 7.19929H248.313L245.178 15.9193H244.179L244.405 14.5734ZM242.414 7.19929L244.872 14.6137L245.041 15.9193H244.042L240.883 7.19929H242.414ZM254.174 7.19929V15.9193H252.675V7.19929H254.174ZM252.562 4.88633C252.562 4.64455 252.634 4.44039 252.78 4.27383C252.93 4.10728 253.15 4.024 253.44 4.024C253.725 4.024 253.943 4.10728 254.093 4.27383C254.249 4.44039 254.327 4.64455 254.327 4.88633C254.327 5.11735 254.249 5.31615 254.093 5.4827C253.943 5.64388 253.725 5.72447 253.44 5.72447C253.15 5.72447 252.93 5.64388 252.78 5.4827C252.634 5.31615 252.562 5.11735 252.562 4.88633ZM262.992 16.0804C262.385 16.0804 261.834 15.9784 261.34 15.7742C260.851 15.5646 260.429 15.2718 260.074 14.8957C259.725 14.5197 259.456 14.0737 259.268 13.5579C259.08 13.0421 258.986 12.478 258.986 11.8655V11.527C258.986 10.8178 259.091 10.1865 259.301 9.63314C259.51 9.07438 259.795 8.60158 260.155 8.21474C260.515 7.8279 260.923 7.53509 261.38 7.3363C261.837 7.13751 262.309 7.03811 262.798 7.03811C263.421 7.03811 263.959 7.14556 264.41 7.36047C264.867 7.57538 265.24 7.87626 265.53 8.26309C265.82 8.64456 266.035 9.09587 266.175 9.61703C266.315 10.1328 266.385 10.6969 266.385 11.3094V11.9783H259.873V10.7614H264.894V10.6486C264.872 10.2618 264.792 9.88566 264.652 9.52032C264.518 9.15497 264.303 8.8541 264.007 8.6177C263.712 8.38129 263.309 8.26309 262.798 8.26309C262.46 8.26309 262.148 8.33563 261.863 8.48069C261.579 8.62038 261.334 8.82992 261.13 9.1093C260.926 9.38868 260.767 9.72985 260.655 10.1328C260.542 10.5358 260.485 11.0005 260.485 11.527V11.8655C260.485 12.2792 260.542 12.6687 260.655 13.0341C260.773 13.3941 260.942 13.7111 261.162 13.9851C261.388 14.2591 261.659 14.474 261.976 14.6298C262.299 14.7856 262.664 14.8635 263.072 14.8635C263.599 14.8635 264.045 14.7561 264.41 14.5411C264.775 14.3262 265.095 14.0388 265.369 13.6788L266.272 14.3961C266.084 14.6808 265.845 14.9522 265.554 15.21C265.264 15.4679 264.907 15.6775 264.483 15.8387C264.064 15.9998 263.567 16.0804 262.992 16.0804ZM273.139 14.3719L275.38 7.19929H276.363L276.17 8.62575L273.889 15.9193H272.93L273.139 14.3719ZM271.632 7.19929L273.542 14.4525L273.679 15.9193H272.672L270.141 7.19929H271.632ZM278.507 14.3961L280.328 7.19929H281.811L279.28 15.9193H278.281L278.507 14.3961ZM276.581 7.19929L278.773 14.251L279.023 15.9193H278.072L275.726 8.60964L275.533 7.19929H276.581ZM291.225 13.6063C291.225 13.3914 291.177 13.1926 291.08 13.0099C290.989 12.8219 290.798 12.6526 290.508 12.5022C290.223 12.3464 289.793 12.2121 289.219 12.0992C288.735 11.9971 288.297 11.8763 287.905 11.7366C287.518 11.5969 287.188 11.4276 286.914 11.2288C286.645 11.0301 286.438 10.7963 286.293 10.5277C286.148 10.2591 286.076 9.94476 286.076 9.58479C286.076 9.24093 286.151 8.91588 286.301 8.60964C286.457 8.30339 286.675 8.03207 286.954 7.79567C287.239 7.55927 287.58 7.37391 287.978 7.23959C288.375 7.10527 288.818 7.03811 289.307 7.03811C290.006 7.03811 290.602 7.16168 291.096 7.40883C291.591 7.65597 291.969 7.9864 292.233 8.4001C292.496 8.80843 292.628 9.26242 292.628 9.76209H291.137C291.137 9.52032 291.064 9.2866 290.919 9.06095C290.779 8.82992 290.573 8.63919 290.299 8.48875C290.03 8.33831 289.699 8.26309 289.307 8.26309C288.894 8.26309 288.558 8.32757 288.3 8.45651C288.047 8.58009 287.862 8.73858 287.744 8.932C287.631 9.12542 287.575 9.32958 287.575 9.54449C287.575 9.70568 287.601 9.85074 287.655 9.97969C287.714 10.1033 287.816 10.2188 287.961 10.3262C288.106 10.4283 288.311 10.525 288.574 10.6164C288.837 10.7077 289.173 10.799 289.581 10.8904C290.296 11.0515 290.884 11.245 291.346 11.4706C291.808 11.6963 292.152 11.973 292.378 12.3007C292.603 12.6284 292.716 13.026 292.716 13.4935C292.716 13.8749 292.636 14.2242 292.474 14.5411C292.319 14.8581 292.09 15.1321 291.789 15.3632C291.494 15.5888 291.139 15.7661 290.726 15.8951C290.317 16.0186 289.858 16.0804 289.348 16.0804C288.579 16.0804 287.929 15.9434 287.397 15.6694C286.865 15.3954 286.462 15.0408 286.188 14.6056C285.914 14.1704 285.777 13.7111 285.777 13.2275H287.276C287.298 13.6358 287.416 13.9609 287.631 14.2027C287.846 14.4391 288.109 14.6083 288.421 14.7104C288.732 14.8071 289.041 14.8554 289.348 14.8554C289.756 14.8554 290.097 14.8017 290.371 14.6943C290.65 14.5868 290.863 14.4391 291.008 14.251C291.153 14.063 291.225 13.8481 291.225 13.6063Z" fill="#00ED96"/>
</svg>
