<svg width="245" height="16" viewBox="0 0 245 16" fill="none" xmlns="http://www.w3.org/2000/svg">
<path d="M2.42676 8.2627L1.41504 8.00293L1.91406 3.04688H7.02051V4.21582H2.9873L2.68652 6.92285C2.86882 6.81803 3.09896 6.72005 3.37695 6.62891C3.65951 6.53776 3.98307 6.49219 4.34766 6.49219C4.80794 6.49219 5.22038 6.57194 5.58496 6.73145C5.94954 6.88639 6.25944 7.1097 6.51465 7.40137C6.77441 7.69303 6.97266 8.04395 7.10938 8.4541C7.24609 8.86426 7.31445 9.32227 7.31445 9.82812C7.31445 10.3066 7.24837 10.7464 7.11621 11.1475C6.98861 11.5485 6.79492 11.8994 6.53516 12.2002C6.27539 12.4964 5.94727 12.7266 5.55078 12.8906C5.15885 13.0547 4.69629 13.1367 4.16309 13.1367C3.76204 13.1367 3.38151 13.082 3.02148 12.9727C2.66602 12.8587 2.34701 12.6878 2.06445 12.46C1.78646 12.2275 1.55859 11.9404 1.38086 11.5986C1.20768 11.2523 1.09831 10.8467 1.05273 10.3818H2.25586C2.31055 10.7555 2.41992 11.07 2.58398 11.3252C2.74805 11.5804 2.96224 11.7741 3.22656 11.9062C3.49544 12.0339 3.80762 12.0977 4.16309 12.0977C4.46387 12.0977 4.73047 12.0452 4.96289 11.9404C5.19531 11.8356 5.39128 11.6852 5.55078 11.4893C5.71029 11.2933 5.83105 11.0563 5.91309 10.7783C5.99967 10.5003 6.04297 10.1882 6.04297 9.8418C6.04297 9.52734 5.99967 9.23568 5.91309 8.9668C5.8265 8.69792 5.69661 8.46322 5.52344 8.2627C5.35482 8.06217 5.14746 7.90723 4.90137 7.79785C4.65527 7.68392 4.37272 7.62695 4.05371 7.62695C3.62988 7.62695 3.30859 7.68392 3.08984 7.79785C2.87565 7.91178 2.65462 8.06673 2.42676 8.2627ZM11.2394 12.3301C11.2394 12.1159 11.3055 11.9359 11.4376 11.79C11.5743 11.6396 11.7703 11.5645 12.0255 11.5645C12.2807 11.5645 12.4744 11.6396 12.6066 11.79C12.7433 11.9359 12.8116 12.1159 12.8116 12.3301C12.8116 12.5397 12.7433 12.7174 12.6066 12.8633C12.4744 13.0091 12.2807 13.082 12.0255 13.082C11.7703 13.082 11.5743 13.0091 11.4376 12.8633C11.3055 12.7174 11.2394 12.5397 11.2394 12.3301ZM23.4016 7.23047V8.74805C23.4016 9.5638 23.3287 10.252 23.1829 10.8125C23.037 11.373 22.8274 11.8242 22.5539 12.166C22.2805 12.5078 21.9501 12.7562 21.5627 12.9111C21.1799 13.0615 20.747 13.1367 20.2639 13.1367C19.8811 13.1367 19.5279 13.0889 19.2043 12.9932C18.8808 12.8975 18.5891 12.7448 18.3293 12.5352C18.0741 12.321 17.8554 12.043 17.6731 11.7012C17.4908 11.3594 17.3518 10.9447 17.2561 10.457C17.1604 9.9694 17.1125 9.39974 17.1125 8.74805V7.23047C17.1125 6.41471 17.1855 5.73112 17.3313 5.17969C17.4817 4.62826 17.6936 4.1862 17.967 3.85352C18.2405 3.51628 18.5686 3.27474 18.9514 3.12891C19.3388 2.98307 19.7717 2.91016 20.2502 2.91016C20.6376 2.91016 20.9931 2.95801 21.3166 3.05371C21.6448 3.14486 21.9364 3.29297 22.1916 3.49805C22.4468 3.69857 22.6633 3.96745 22.8411 4.30469C23.0233 4.63737 23.1623 5.04525 23.258 5.52832C23.3538 6.01139 23.4016 6.57878 23.4016 7.23047ZM22.1301 8.95312V7.01855C22.1301 6.57194 22.1028 6.18001 22.0481 5.84277C21.998 5.50098 21.9228 5.20931 21.8225 4.96777C21.7222 4.72624 21.5946 4.53027 21.4397 4.37988C21.2893 4.22949 21.1138 4.12012 20.9133 4.05176C20.7174 3.97884 20.4963 3.94238 20.2502 3.94238C19.9495 3.94238 19.6829 3.99935 19.4504 4.11328C19.218 4.22266 19.022 4.39811 18.8625 4.63965C18.7076 4.88118 18.5891 5.19792 18.5071 5.58984C18.425 5.98177 18.384 6.45801 18.384 7.01855V8.95312C18.384 9.39974 18.4091 9.79395 18.4592 10.1357C18.5139 10.4775 18.5937 10.7738 18.6985 11.0244C18.8033 11.2705 18.9309 11.4733 19.0813 11.6328C19.2317 11.7923 19.4049 11.9108 19.6008 11.9883C19.8013 12.0612 20.0224 12.0977 20.2639 12.0977C20.5738 12.0977 20.845 12.0384 21.0774 11.9199C21.3098 11.8014 21.5035 11.6169 21.6584 11.3662C21.8179 11.111 21.9364 10.7852 22.0139 10.3887C22.0914 9.98763 22.1301 9.50911 22.1301 8.95312Z" fill="white"/>
<path d="M46.6925 11.9268V13H41.422V11.9268H46.6925ZM41.6886 3.04688V13H40.3693V3.04688H41.6886ZM45.9952 7.32617V8.39941H41.422V7.32617H45.9952ZM46.6241 3.04688V4.12695H41.422V3.04688H46.6241ZM51.3694 5.60352L52.9895 8.29688L54.6301 5.60352H56.1135L53.6936 9.25391L56.1887 13H54.7258L53.0168 10.2246L51.3079 13H49.8381L52.3264 9.25391L49.9133 5.60352H51.3694ZM62.6634 12.0977C62.9642 12.0977 63.2422 12.0361 63.4974 11.9131C63.7526 11.79 63.9623 11.6214 64.1263 11.4072C64.2904 11.1885 64.3838 10.9401 64.4066 10.6621H65.6097C65.5869 11.0996 65.4388 11.5075 65.1654 11.8857C64.8965 12.2594 64.5433 12.5625 64.1058 12.7949C63.6683 13.0228 63.1875 13.1367 62.6634 13.1367C62.1075 13.1367 61.6221 13.0387 61.2074 12.8428C60.7972 12.6468 60.4554 12.3779 60.182 12.0361C59.9131 11.6943 59.7103 11.3024 59.5736 10.8604C59.4414 10.4137 59.3754 9.94206 59.3754 9.44531V9.1582C59.3754 8.66146 59.4414 8.19206 59.5736 7.75C59.7103 7.30339 59.9131 6.90918 60.182 6.56738C60.4554 6.22559 60.7972 5.95671 61.2074 5.76074C61.6221 5.56478 62.1075 5.4668 62.6634 5.4668C63.2422 5.4668 63.7481 5.58529 64.181 5.82227C64.614 6.05469 64.9535 6.3737 65.1996 6.7793C65.4502 7.18034 65.5869 7.63607 65.6097 8.14648H64.4066C64.3838 7.84115 64.2972 7.56543 64.1468 7.31934C64.001 7.07324 63.8005 6.87728 63.5453 6.73145C63.2946 6.58105 63.0007 6.50586 62.6634 6.50586C62.2761 6.50586 61.9502 6.58333 61.6859 6.73828C61.4261 6.88867 61.2188 7.09375 61.0638 7.35352C60.9134 7.60872 60.8041 7.89355 60.7357 8.20801C60.6719 8.5179 60.64 8.83464 60.64 9.1582V9.44531C60.64 9.76888 60.6719 10.0879 60.7357 10.4023C60.7995 10.7168 60.9066 11.0016 61.057 11.2568C61.2119 11.512 61.4193 11.7171 61.6791 11.8721C61.9434 12.0225 62.2715 12.0977 62.6634 12.0977ZM72.4809 13.1367C71.966 13.1367 71.4988 13.0501 71.0796 12.877C70.6649 12.6992 70.3071 12.4508 70.0063 12.1318C69.7101 11.8128 69.4822 11.4346 69.3227 10.9971C69.1632 10.5596 69.0835 10.0811 69.0835 9.56152V9.27441C69.0835 8.67285 69.1723 8.13737 69.3501 7.66797C69.5278 7.19401 69.7694 6.79297 70.0747 6.46484C70.38 6.13672 70.7264 5.88835 71.1138 5.71973C71.5011 5.55111 71.9022 5.4668 72.3169 5.4668C72.8455 5.4668 73.3013 5.55794 73.6841 5.74023C74.0714 5.92253 74.3882 6.17773 74.6343 6.50586C74.8804 6.82943 75.0626 7.21224 75.1811 7.6543C75.2996 8.0918 75.3589 8.57031 75.3589 9.08984V9.65723H69.8354V8.625H74.0942V8.5293C74.076 8.20117 74.0076 7.88216 73.8891 7.57227C73.7752 7.26237 73.5929 7.00716 73.3423 6.80664C73.0916 6.60612 72.7498 6.50586 72.3169 6.50586C72.0298 6.50586 71.7654 6.56738 71.5239 6.69043C71.2824 6.80892 71.075 6.98665 70.9018 7.22363C70.7287 7.46061 70.5942 7.75 70.4985 8.0918C70.4028 8.43359 70.355 8.8278 70.355 9.27441V9.56152C70.355 9.91243 70.4028 10.2428 70.4985 10.5527C70.5988 10.8581 70.7423 11.127 70.9292 11.3594C71.1206 11.5918 71.3507 11.7741 71.6196 11.9062C71.8931 12.0384 72.2029 12.1045 72.5493 12.1045C72.9959 12.1045 73.3742 12.0133 73.6841 11.8311C73.994 11.6488 74.2651 11.4049 74.4975 11.0996L75.2632 11.708C75.1037 11.9495 74.9009 12.1797 74.6548 12.3984C74.4087 12.6172 74.1056 12.7949 73.7456 12.9316C73.3901 13.0684 72.9686 13.1367 72.4809 13.1367ZM80.5895 2.5V13H79.318V2.5H80.5895ZM86.3738 2.5V13H85.1023V2.5H86.3738ZM93.8534 13.1367C93.3384 13.1367 92.8713 13.0501 92.452 12.877C92.0373 12.6992 91.6795 12.4508 91.3788 12.1318C91.0825 11.8128 90.8547 11.4346 90.6952 10.9971C90.5357 10.5596 90.4559 10.0811 90.4559 9.56152V9.27441C90.4559 8.67285 90.5448 8.13737 90.7225 7.66797C90.9002 7.19401 91.1418 6.79297 91.4471 6.46484C91.7525 6.13672 92.0988 5.88835 92.4862 5.71973C92.8735 5.55111 93.2746 5.4668 93.6893 5.4668C94.2179 5.4668 94.6737 5.55794 95.0565 5.74023C95.4439 5.92253 95.7606 6.17773 96.0067 6.50586C96.2528 6.82943 96.4351 7.21224 96.5536 7.6543C96.672 8.0918 96.7313 8.57031 96.7313 9.08984V9.65723H91.2079V8.625H95.4666V8.5293C95.4484 8.20117 95.3801 7.88216 95.2616 7.57227C95.1476 7.26237 94.9653 7.00716 94.7147 6.80664C94.464 6.60612 94.1222 6.50586 93.6893 6.50586C93.4022 6.50586 93.1379 6.56738 92.8963 6.69043C92.6548 6.80892 92.4474 6.98665 92.2743 7.22363C92.1011 7.46061 91.9666 7.75 91.8709 8.0918C91.7752 8.43359 91.7274 8.8278 91.7274 9.27441V9.56152C91.7274 9.91243 91.7752 10.2428 91.8709 10.5527C91.9712 10.8581 92.1148 11.127 92.3016 11.3594C92.493 11.5918 92.7232 11.7741 92.992 11.9062C93.2655 12.0384 93.5754 12.1045 93.9217 12.1045C94.3683 12.1045 94.7466 12.0133 95.0565 11.8311C95.3664 11.6488 95.6375 11.4049 95.87 11.0996L96.6356 11.708C96.4761 11.9495 96.2733 12.1797 96.0272 12.3984C95.7811 12.6172 95.478 12.7949 95.118 12.9316C94.7625 13.0684 94.341 13.1367 93.8534 13.1367ZM101.853 7.18262V13H100.588V5.60352H101.784L101.853 7.18262ZM101.552 9.02148L101.025 9.00098C101.03 8.49512 101.105 8.02799 101.251 7.59961C101.397 7.16667 101.602 6.79069 101.866 6.47168C102.13 6.15267 102.445 5.90658 102.81 5.7334C103.179 5.55566 103.587 5.4668 104.033 5.4668C104.398 5.4668 104.726 5.51693 105.018 5.61719C105.309 5.71289 105.558 5.86784 105.763 6.08203C105.972 6.29622 106.132 6.57422 106.241 6.91602C106.351 7.25326 106.405 7.66569 106.405 8.15332V13H105.134V8.13965C105.134 7.75228 105.077 7.44238 104.963 7.20996C104.849 6.97298 104.683 6.80208 104.464 6.69727C104.245 6.58789 103.976 6.5332 103.657 6.5332C103.343 6.5332 103.056 6.59928 102.796 6.73145C102.541 6.86361 102.32 7.0459 102.133 7.27832C101.95 7.51074 101.807 7.77734 101.702 8.07812C101.602 8.37435 101.552 8.6888 101.552 9.02148ZM113.803 5.60352V6.57422H109.804V5.60352H113.803ZM111.157 3.80566H112.422V11.168C112.422 11.4186 112.461 11.6077 112.538 11.7354C112.616 11.863 112.716 11.9473 112.839 11.9883C112.962 12.0293 113.094 12.0498 113.235 12.0498C113.34 12.0498 113.45 12.0407 113.564 12.0225C113.682 11.9997 113.771 11.9814 113.83 11.9678L113.837 13C113.737 13.0319 113.605 13.0615 113.441 13.0889C113.281 13.1208 113.087 13.1367 112.859 13.1367C112.55 13.1367 112.265 13.0752 112.005 12.9521C111.745 12.8291 111.538 12.624 111.383 12.3369C111.233 12.0452 111.157 11.6533 111.157 11.1611V3.80566Z" fill="white"/>
<path d="M124.085 7.99609V7.71582C124.085 7.32389 124.208 7.00033 124.454 6.74512C124.705 6.48991 125.044 6.3623 125.473 6.3623C125.906 6.3623 126.247 6.48991 126.498 6.74512C126.749 7.00033 126.874 7.32389 126.874 7.71582V7.99609C126.874 8.38346 126.749 8.70475 126.498 8.95996C126.252 9.21061 125.912 9.33594 125.479 9.33594C125.051 9.33594 124.712 9.21061 124.461 8.95996C124.21 8.70475 124.085 8.38346 124.085 7.99609ZM138.427 8.2627L137.415 8.00293L137.914 3.04688H143.021V4.21582H138.987L138.687 6.92285C138.869 6.81803 139.099 6.72005 139.377 6.62891C139.66 6.53776 139.983 6.49219 140.348 6.49219C140.808 6.49219 141.22 6.57194 141.585 6.73145C141.95 6.88639 142.259 7.1097 142.515 7.40137C142.774 7.69303 142.973 8.04395 143.109 8.4541C143.246 8.86426 143.314 9.32227 143.314 9.82812C143.314 10.3066 143.248 10.7464 143.116 11.1475C142.989 11.5485 142.795 11.8994 142.535 12.2002C142.275 12.4964 141.947 12.7266 141.551 12.8906C141.159 13.0547 140.696 13.1367 140.163 13.1367C139.762 13.1367 139.382 13.082 139.021 12.9727C138.666 12.8587 138.347 12.6878 138.064 12.46C137.786 12.2275 137.559 11.9404 137.381 11.5986C137.208 11.2523 137.098 10.8467 137.053 10.3818H138.256C138.311 10.7555 138.42 11.07 138.584 11.3252C138.748 11.5804 138.962 11.7741 139.227 11.9062C139.495 12.0339 139.808 12.0977 140.163 12.0977C140.464 12.0977 140.73 12.0452 140.963 11.9404C141.195 11.8356 141.391 11.6852 141.551 11.4893C141.71 11.2933 141.831 11.0563 141.913 10.7783C142 10.5003 142.043 10.1882 142.043 9.8418C142.043 9.52734 142 9.23568 141.913 8.9668C141.826 8.69792 141.697 8.46322 141.523 8.2627C141.355 8.06217 141.147 7.90723 140.901 7.79785C140.655 7.68392 140.373 7.62695 140.054 7.62695C139.63 7.62695 139.309 7.68392 139.09 7.79785C138.876 7.91178 138.655 8.06673 138.427 8.2627ZM153.33 7.23047V8.74805C153.33 9.5638 153.257 10.252 153.111 10.8125C152.966 11.373 152.756 11.8242 152.483 12.166C152.209 12.5078 151.879 12.7562 151.491 12.9111C151.109 13.0615 150.676 13.1367 150.193 13.1367C149.81 13.1367 149.456 13.0889 149.133 12.9932C148.809 12.8975 148.518 12.7448 148.258 12.5352C148.003 12.321 147.784 12.043 147.602 11.7012C147.419 11.3594 147.28 10.9447 147.185 10.457C147.089 9.9694 147.041 9.39974 147.041 8.74805V7.23047C147.041 6.41471 147.114 5.73112 147.26 5.17969C147.41 4.62826 147.622 4.1862 147.896 3.85352C148.169 3.51628 148.497 3.27474 148.88 3.12891C149.267 2.98307 149.7 2.91016 150.179 2.91016C150.566 2.91016 150.922 2.95801 151.245 3.05371C151.573 3.14486 151.865 3.29297 152.12 3.49805C152.375 3.69857 152.592 3.96745 152.77 4.30469C152.952 4.63737 153.091 5.04525 153.187 5.52832C153.282 6.01139 153.33 6.57878 153.33 7.23047ZM152.059 8.95312V7.01855C152.059 6.57194 152.031 6.18001 151.977 5.84277C151.927 5.50098 151.851 5.20931 151.751 4.96777C151.651 4.72624 151.523 4.53027 151.368 4.37988C151.218 4.22949 151.042 4.12012 150.842 4.05176C150.646 3.97884 150.425 3.94238 150.179 3.94238C149.878 3.94238 149.611 3.99935 149.379 4.11328C149.147 4.22266 148.951 4.39811 148.791 4.63965C148.636 4.88118 148.518 5.19792 148.436 5.58984C148.354 5.98177 148.313 6.45801 148.313 7.01855V8.95312C148.313 9.39974 148.338 9.79395 148.388 10.1357C148.443 10.4775 148.522 10.7738 148.627 11.0244C148.732 11.2705 148.859 11.4733 149.01 11.6328C149.16 11.7923 149.333 11.9108 149.529 11.9883C149.73 12.0612 149.951 12.0977 150.193 12.0977C150.502 12.0977 150.774 12.0384 151.006 11.9199C151.238 11.8014 151.432 11.6169 151.587 11.3662C151.747 11.111 151.865 10.7852 151.943 10.3887C152.02 9.98763 152.059 9.50911 152.059 8.95312ZM163.585 7.23047V8.74805C163.585 9.5638 163.512 10.252 163.366 10.8125C163.221 11.373 163.011 11.8242 162.738 12.166C162.464 12.5078 162.134 12.7562 161.746 12.9111C161.364 13.0615 160.931 13.1367 160.448 13.1367C160.065 13.1367 159.711 13.0889 159.388 12.9932C159.064 12.8975 158.773 12.7448 158.513 12.5352C158.258 12.321 158.039 12.043 157.857 11.7012C157.674 11.3594 157.535 10.9447 157.44 10.457C157.344 9.9694 157.296 9.39974 157.296 8.74805V7.23047C157.296 6.41471 157.369 5.73112 157.515 5.17969C157.665 4.62826 157.877 4.1862 158.151 3.85352C158.424 3.51628 158.752 3.27474 159.135 3.12891C159.522 2.98307 159.955 2.91016 160.434 2.91016C160.821 2.91016 161.177 2.95801 161.5 3.05371C161.828 3.14486 162.12 3.29297 162.375 3.49805C162.63 3.69857 162.847 3.96745 163.025 4.30469C163.207 4.63737 163.346 5.04525 163.442 5.52832C163.537 6.01139 163.585 6.57878 163.585 7.23047ZM162.314 8.95312V7.01855C162.314 6.57194 162.286 6.18001 162.232 5.84277C162.182 5.50098 162.106 5.20931 162.006 4.96777C161.906 4.72624 161.778 4.53027 161.623 4.37988C161.473 4.22949 161.297 4.12012 161.097 4.05176C160.901 3.97884 160.68 3.94238 160.434 3.94238C160.133 3.94238 159.866 3.99935 159.634 4.11328C159.402 4.22266 159.206 4.39811 159.046 4.63965C158.891 4.88118 158.773 5.19792 158.691 5.58984C158.609 5.98177 158.568 6.45801 158.568 7.01855V8.95312C158.568 9.39974 158.593 9.79395 158.643 10.1357C158.698 10.4775 158.777 10.7738 158.882 11.0244C158.987 11.2705 159.114 11.4733 159.265 11.6328C159.415 11.7923 159.588 11.9108 159.784 11.9883C159.985 12.0612 160.206 12.0977 160.448 12.0977C160.757 12.0977 161.029 12.0384 161.261 11.9199C161.493 11.8014 161.687 11.6169 161.842 11.3662C162.002 11.111 162.12 10.7852 162.198 10.3887C162.275 9.98763 162.314 9.50911 162.314 8.95312ZM174.12 7.66113V8.85059H167.298V7.66113H174.12ZM171.345 4.75586V12.002H170.08V4.75586H171.345ZM185.17 6.76562V13H183.905V5.60352H185.135L185.17 6.76562ZM187.48 5.5625L187.473 6.73828C187.368 6.71549 187.268 6.70182 187.172 6.69727C187.081 6.68815 186.976 6.68359 186.858 6.68359C186.566 6.68359 186.309 6.72917 186.086 6.82031C185.862 6.91146 185.673 7.03906 185.518 7.20312C185.363 7.36719 185.24 7.56315 185.149 7.79102C185.062 8.01432 185.005 8.26042 184.978 8.5293L184.623 8.73438C184.623 8.28776 184.666 7.86849 184.753 7.47656C184.844 7.08464 184.983 6.73828 185.17 6.4375C185.356 6.13216 185.593 5.89518 185.88 5.72656C186.172 5.55339 186.518 5.4668 186.92 5.4668C187.011 5.4668 187.115 5.47819 187.234 5.50098C187.352 5.51921 187.435 5.53971 187.48 5.5625ZM193.962 13.1367C193.447 13.1367 192.98 13.0501 192.56 12.877C192.146 12.6992 191.788 12.4508 191.487 12.1318C191.191 11.8128 190.963 11.4346 190.803 10.9971C190.644 10.5596 190.564 10.0811 190.564 9.56152V9.27441C190.564 8.67285 190.653 8.13737 190.831 7.66797C191.009 7.19401 191.25 6.79297 191.555 6.46484C191.861 6.13672 192.207 5.88835 192.594 5.71973C192.982 5.55111 193.383 5.4668 193.798 5.4668C194.326 5.4668 194.782 5.55794 195.165 5.74023C195.552 5.92253 195.869 6.17773 196.115 6.50586C196.361 6.82943 196.543 7.21224 196.662 7.6543C196.78 8.0918 196.84 8.57031 196.84 9.08984V9.65723H191.316V8.625H195.575V8.5293C195.557 8.20117 195.488 7.88216 195.37 7.57227C195.256 7.26237 195.074 7.00716 194.823 6.80664C194.572 6.60612 194.231 6.50586 193.798 6.50586C193.51 6.50586 193.246 6.56738 193.005 6.69043C192.763 6.80892 192.556 6.98665 192.383 7.22363C192.209 7.46061 192.075 7.75 191.979 8.0918C191.884 8.43359 191.836 8.8278 191.836 9.27441V9.56152C191.836 9.91243 191.884 10.2428 191.979 10.5527C192.079 10.8581 192.223 11.127 192.41 11.3594C192.601 11.5918 192.831 11.7741 193.1 11.9062C193.374 12.0384 193.684 12.1045 194.03 12.1045C194.477 12.1045 194.855 12.0133 195.165 11.8311C195.475 11.6488 195.746 11.4049 195.978 11.0996L196.744 11.708C196.584 11.9495 196.382 12.1797 196.135 12.3984C195.889 12.6172 195.586 12.7949 195.226 12.9316C194.871 13.0684 194.449 13.1367 193.962 13.1367ZM202.849 11.8584L204.873 5.60352H206.165L203.506 13H202.658L202.849 11.8584ZM201.161 5.60352L203.246 11.8926L203.389 13H202.542L199.862 5.60352H201.161ZM211.136 5.60352V13H209.864V5.60352H211.136ZM209.769 3.6416C209.769 3.43652 209.83 3.26335 209.953 3.12207C210.081 2.98079 210.268 2.91016 210.514 2.91016C210.755 2.91016 210.94 2.98079 211.067 3.12207C211.2 3.26335 211.266 3.43652 211.266 3.6416C211.266 3.83757 211.2 4.00618 211.067 4.14746C210.94 4.28418 210.755 4.35254 210.514 4.35254C210.268 4.35254 210.081 4.28418 209.953 4.14746C209.83 4.00618 209.769 3.83757 209.769 3.6416ZM218.615 13.1367C218.1 13.1367 217.633 13.0501 217.214 12.877C216.799 12.6992 216.441 12.4508 216.141 12.1318C215.844 11.8128 215.617 11.4346 215.457 10.9971C215.298 10.5596 215.218 10.0811 215.218 9.56152V9.27441C215.218 8.67285 215.307 8.13737 215.484 7.66797C215.662 7.19401 215.904 6.79297 216.209 6.46484C216.514 6.13672 216.861 5.88835 217.248 5.71973C217.635 5.55111 218.037 5.4668 218.451 5.4668C218.98 5.4668 219.436 5.55794 219.818 5.74023C220.206 5.92253 220.523 6.17773 220.769 6.50586C221.015 6.82943 221.197 7.21224 221.316 7.6543C221.434 8.0918 221.493 8.57031 221.493 9.08984V9.65723H215.97V8.625H220.229V8.5293C220.21 8.20117 220.142 7.88216 220.024 7.57227C219.91 7.26237 219.727 7.00716 219.477 6.80664C219.226 6.60612 218.884 6.50586 218.451 6.50586C218.164 6.50586 217.9 6.56738 217.658 6.69043C217.417 6.80892 217.209 6.98665 217.036 7.22363C216.863 7.46061 216.729 7.75 216.633 8.0918C216.537 8.43359 216.489 8.8278 216.489 9.27441V9.56152C216.489 9.91243 216.537 10.2428 216.633 10.5527C216.733 10.8581 216.877 11.127 217.064 11.3594C217.255 11.5918 217.485 11.7741 217.754 11.9062C218.027 12.0384 218.337 12.1045 218.684 12.1045C219.13 12.1045 219.509 12.0133 219.818 11.8311C220.128 11.6488 220.399 11.4049 220.632 11.0996L221.398 11.708C221.238 11.9495 221.035 12.1797 220.789 12.3984C220.543 12.6172 220.24 12.7949 219.88 12.9316C219.524 13.0684 219.103 13.1367 218.615 13.1367ZM227.223 11.6875L229.123 5.60352H229.957L229.793 6.81348L227.859 13H227.045L227.223 11.6875ZM225.945 5.60352L227.565 11.7559L227.681 13H226.826L224.68 5.60352H225.945ZM231.776 11.708L233.321 5.60352H234.578L232.432 13H231.584L231.776 11.708ZM230.142 5.60352L232.001 11.585L232.213 13H231.406L229.417 6.7998L229.253 5.60352H230.142ZM242.564 11.0381C242.564 10.8558 242.523 10.6872 242.441 10.5322C242.363 10.3727 242.201 10.2292 241.955 10.1016C241.714 9.9694 241.349 9.85547 240.862 9.75977C240.451 9.67318 240.08 9.57064 239.747 9.45215C239.419 9.33366 239.139 9.1901 238.907 9.02148C238.679 8.85286 238.503 8.65462 238.38 8.42676C238.257 8.19889 238.196 7.93229 238.196 7.62695C238.196 7.33529 238.259 7.05957 238.387 6.7998C238.519 6.54004 238.704 6.3099 238.941 6.10938C239.182 5.90885 239.472 5.75163 239.809 5.6377C240.146 5.52376 240.522 5.4668 240.937 5.4668C241.529 5.4668 242.035 5.57161 242.454 5.78125C242.874 5.99089 243.195 6.27116 243.418 6.62207C243.642 6.96842 243.753 7.35352 243.753 7.77734H242.489C242.489 7.57227 242.427 7.37402 242.304 7.18262C242.186 6.98665 242.01 6.82487 241.778 6.69727C241.55 6.56966 241.27 6.50586 240.937 6.50586C240.586 6.50586 240.301 6.56055 240.082 6.66992C239.868 6.77474 239.711 6.90918 239.611 7.07324C239.515 7.2373 239.467 7.41048 239.467 7.59277C239.467 7.72949 239.49 7.85254 239.535 7.96191C239.586 8.06673 239.672 8.16471 239.795 8.25586C239.918 8.34245 240.091 8.42448 240.315 8.50195C240.538 8.57943 240.823 8.6569 241.169 8.73438C241.775 8.87109 242.274 9.03516 242.666 9.22656C243.058 9.41797 243.35 9.65267 243.541 9.93066C243.733 10.2087 243.828 10.5459 243.828 10.9424C243.828 11.266 243.76 11.5622 243.623 11.8311C243.491 12.0999 243.298 12.3324 243.042 12.5283C242.792 12.7197 242.491 12.8701 242.14 12.9795C241.794 13.0843 241.404 13.1367 240.971 13.1367C240.319 13.1367 239.768 13.0205 239.317 12.7881C238.866 12.5557 238.524 12.2549 238.291 11.8857C238.059 11.5166 237.943 11.127 237.943 10.7168H239.214C239.232 11.0632 239.333 11.3389 239.515 11.5439C239.697 11.7445 239.921 11.888 240.185 11.9746C240.449 12.0566 240.711 12.0977 240.971 12.0977C241.317 12.0977 241.607 12.0521 241.839 11.9609C242.076 11.8698 242.256 11.7445 242.379 11.585C242.502 11.4255 242.564 11.2432 242.564 11.0381Z" fill="white"/>
</svg>
