<svg width="29" height="29" viewBox="0 0 29 29" fill="none" xmlns="http://www.w3.org/2000/svg">
<path d="M20.444 6.32539V5.82539H19.944H16.8677C16.2098 5.82539 15.5917 5.93951 15.0193 6.1737C14.4618 6.40173 13.9677 6.7086 13.5415 7.09606C13.1159 7.48294 12.7816 7.92683 12.5446 8.4272C12.3089 8.92473 12.1853 9.43528 12.1853 9.95471V11.2867H9.95471H9.45471V11.7867V15.3814V15.8814H9.95471H12.1853V22.64V23.14H12.6853H16.3147H16.8147V22.64V15.8814H19.0107H19.5107V15.3814V11.7867V11.2867H19.0107H16.8147V10.8534C16.8147 10.7326 16.8512 10.6644 16.9396 10.5992C17.0269 10.5349 17.0952 10.4967 17.1451 10.4755C17.1923 10.4554 17.2135 10.4547 17.2135 10.4547H19.944H20.444V9.95471V6.32539ZM14.4827 0.5C16.4224 0.5 18.2385 0.86749 19.936 1.59975C21.6428 2.336 23.1277 3.33777 24.395 4.60504C25.6628 5.87285 26.6646 7.35246 27.4007 9.04777C28.1325 10.7331 28.5 12.543 28.5 14.4827C28.5 16.4224 28.1325 18.2385 27.4002 19.936C26.664 21.6428 25.6622 23.1277 24.395 24.395C23.1277 25.6622 21.6428 26.664 19.936 27.4002C18.2385 28.1325 16.4224 28.5 14.4827 28.5C12.543 28.5 10.7331 28.1325 9.04777 27.4007C7.35246 26.6646 5.87285 25.6628 4.60504 24.395C3.33777 23.1277 2.336 21.6428 1.59975 19.936C0.86749 18.2385 0.5 16.4224 0.5 14.4827C0.5 12.543 0.867491 10.7331 1.59927 9.04777C2.3354 7.35246 3.33723 5.87285 4.60504 4.60504C5.87285 3.33723 7.35246 2.3354 9.04777 1.59927C10.7331 0.867491 12.543 0.5 14.4827 0.5Z" fill="white" stroke="black"/>
</svg>
