<svg width="28" height="28" viewBox="0 0 28 28" fill="none" xmlns="http://www.w3.org/2000/svg">
<path d="M13.8495 17.0944C13.4257 17.0944 13.0299 17.0163 12.6619 16.8602C12.2939 16.7041 11.9705 16.4867 11.6918 16.2079C11.413 15.9291 11.1955 15.6002 11.0394 15.221C10.8833 14.8419 10.8053 14.4405 10.8053 14.0167C10.8053 13.593 10.8833 13.1971 11.0394 12.8292C11.1955 12.4612 11.413 12.1378 11.6918 11.859C11.9705 11.5802 12.2939 11.3628 12.6619 11.2067C13.0299 11.0506 13.4257 10.9725 13.8495 10.9725C14.6969 10.9725 15.4162 11.268 16.0072 11.859C16.5982 12.45 16.8937 13.1693 16.8937 14.0167C16.8937 14.4405 16.8156 14.8419 16.6595 15.221C16.5034 15.6002 16.2859 15.9291 16.0072 16.2079C15.7284 16.4867 15.405 16.7041 15.037 16.8602C14.6691 17.0163 14.2732 17.0944 13.8495 17.0944ZM18.7336 14.0167C18.7336 13.816 18.7224 13.6097 18.7001 13.3979C18.6778 13.186 18.6444 12.9908 18.5998 12.8124H19.9713V19.5364C19.9713 19.7149 19.9156 19.8598 19.8041 19.9713C19.6926 20.0828 19.5476 20.1386 19.3692 20.1386H8.32975C8.15133 20.1386 8.00637 20.0828 7.89486 19.9713C7.78335 19.8598 7.7276 19.7149 7.7276 19.5364V12.8124H9.09916C9.05456 12.9908 9.02111 13.186 8.99881 13.3979C8.9765 13.6097 8.96535 13.816 8.96535 14.0167C8.96535 14.6858 9.09359 15.3214 9.35006 15.9235C9.60653 16.5257 9.95221 17.0498 10.3871 17.4958C10.822 17.9419 11.3405 18.2931 11.9427 18.5496C12.5448 18.8061 13.1804 18.9343 13.8495 18.9343C14.5185 18.9343 15.1541 18.8061 15.7563 18.5496C16.3584 18.2931 16.8769 17.9419 17.3118 17.4958C17.7467 17.0498 18.0924 16.5257 18.3489 15.9235C18.6053 15.3214 18.7336 14.6858 18.7336 14.0167ZM13.9833 0C15.9235 0 17.7411 0.367981 19.4361 1.10394C21.131 1.8399 22.6141 2.83791 23.8853 4.09797C25.1565 5.35803 26.1601 6.83552 26.8961 8.53047C27.632 10.2254 28 12.043 28 13.9833C28 15.9235 27.632 17.7411 26.8961 19.4361C26.1601 21.131 25.1565 22.6141 23.8853 23.8853C22.6141 25.1565 21.131 26.1601 19.4361 26.8961C17.7411 27.632 15.9235 28 13.9833 28C12.043 28 10.2254 27.632 8.53047 26.8961C6.83552 26.1601 5.35803 25.1565 4.09797 23.8853C2.83791 22.6141 1.8399 21.131 1.10394 19.4361C0.367981 17.7411 0 15.9235 0 13.9833C0 12.043 0.367981 10.2254 1.10394 8.53047C1.8399 6.83552 2.83791 5.35803 4.09797 4.09797C5.35803 2.83791 6.83552 1.8399 8.53047 1.10394C10.2254 0.367981 12.043 0 13.9833 0ZM21.8112 7.89486C21.8112 7.38192 21.6328 6.94703 21.276 6.5902C20.9192 6.23337 20.4843 6.05496 19.9713 6.05496H7.7276C7.21466 6.05496 6.77977 6.23337 6.42294 6.5902C6.06611 6.94703 5.88769 7.38192 5.88769 7.89486V20.1386C5.88769 20.6515 6.06611 21.0864 6.42294 21.4433C6.77977 21.8001 7.21466 21.9785 7.7276 21.9785H19.9713C20.4843 21.9785 20.9192 21.8001 21.276 21.4433C21.6328 21.0864 21.8112 20.6515 21.8112 20.1386V7.89486ZM19.3692 7.89486C19.5476 7.89486 19.6926 7.95619 19.8041 8.07885C19.9156 8.20151 19.9713 8.35205 19.9713 8.53047V10.3704C19.9713 10.5488 19.9156 10.6937 19.8041 10.8053C19.6926 10.9168 19.5476 10.9725 19.3692 10.9725H17.5293C17.3509 10.9725 17.2003 10.9168 17.0777 10.8053C16.955 10.6937 16.8937 10.5488 16.8937 10.3704V8.53047C16.8937 8.35205 16.955 8.20151 17.0777 8.07885C17.2003 7.95619 17.3509 7.89486 17.5293 7.89486H19.3692Z" fill="white"/>
</svg>
