<svg width="259" height="60" viewBox="0 0 259 60" fill="none" xmlns="http://www.w3.org/2000/svg">
<path d="M7.01465 48.9171V12.7659C7.01465 11.6888 7.37551 10.7901 8.09724 10.07C8.81897 9.34979 9.71685 8.98892 10.7909 8.98737H45.3263C46.4019 8.98737 47.2998 9.34823 48.02 10.07C48.7401 10.7917 49.101 11.6903 49.1026 12.7659V37.9462C49.1026 39.0218 48.7417 39.9204 48.02 40.6421C47.2982 41.3639 46.4004 41.724 45.3263 41.7224H14.2093L7.01465 48.9171ZM22.2528 33.9432L28.0586 30.4218L33.8644 33.9432L32.3212 27.3377L37.4559 22.9325L30.7078 22.3339L28.0586 16.1376L25.4094 22.3339L18.6613 22.9325L23.796 27.3377L22.2528 33.9432Z" fill="black"/>
<path d="M58.822 49.7587V12.1901C58.822 11.0708 59.197 10.1369 59.9471 9.38847C60.6971 8.64006 61.6302 8.26505 62.7463 8.26343H98.6358C99.7536 8.26343 100.687 8.63844 101.435 9.38847C102.183 10.1385 102.558 11.0724 102.56 12.1901V38.3576C102.56 39.4754 102.185 40.4093 101.435 41.1593C100.685 41.9093 99.7519 42.2835 98.6358 42.2819H66.2988L58.822 49.7587ZM74.6576 34.1977L80.6911 30.5382L86.7245 34.1977L85.1207 27.3332L90.4568 22.7553L83.4441 22.1333L80.6911 15.694L77.938 22.1333L70.9253 22.7553L76.2614 27.3332L74.6576 34.1977Z" fill="black"/>
<path d="M108.337 49.7587V12.1901C108.337 11.0708 108.712 10.1369 109.462 9.38847C110.212 8.64006 111.146 8.26505 112.262 8.26343H148.151C149.269 8.26343 150.202 8.63844 150.95 9.38847C151.699 10.1385 152.074 11.0724 152.075 12.1901V38.3576C152.075 39.4754 151.7 40.4093 150.95 41.1593C150.2 41.9093 149.267 42.2835 148.151 42.2819H115.814L108.337 49.7587ZM124.173 34.1977L130.206 30.5382L136.24 34.1977L134.636 27.3332L139.972 22.7553L132.96 22.1333L130.206 15.694L127.453 22.1333L120.441 22.7553L125.777 27.3332L124.173 34.1977Z" fill="black"/>
<path d="M157.853 49.7587V12.1901C157.853 11.0708 158.228 10.1369 158.978 9.38847C159.728 8.64006 160.661 8.26505 161.777 8.26343H197.666C198.784 8.26343 199.717 8.63844 200.466 9.38847C201.214 10.1385 201.589 11.0724 201.591 12.1901V38.3576C201.591 39.4754 201.216 40.4093 200.466 41.1593C199.716 41.9093 198.782 42.2835 197.666 42.2819H165.329L157.853 49.7587ZM173.688 34.1977L179.722 30.5382L185.755 34.1977L184.151 27.3332L189.487 22.7553L182.475 22.1333L179.722 15.694L176.969 22.1333L169.956 22.7553L175.292 27.3332L173.688 34.1977Z" fill="black"/>
<path d="M207.184 49.7587V12.1901C207.184 11.0708 207.559 10.1369 208.309 9.38847C209.059 8.64006 209.992 8.26505 211.109 8.26343H246.998C248.116 8.26343 249.049 8.63844 249.797 9.38847C250.546 10.1385 250.921 11.0724 250.922 12.1901V38.3576C250.922 39.4754 250.547 40.4093 249.797 41.1593C249.047 41.9093 248.114 42.2835 246.998 42.2819H214.661L207.184 49.7587ZM223.02 34.1977L229.053 30.5382L235.087 34.1977L233.483 27.3332L238.819 22.7553L231.806 22.1333L229.053 15.694L226.3 22.1333L219.288 22.7553L224.624 27.3332L223.02 34.1977Z" fill="black"/>
</svg>
