<svg width="52" height="52" viewBox="0 0 52 52" fill="none" xmlns="http://www.w3.org/2000/svg">
<path d="M23.3249 10.8002C23.4004 10.8757 23.4603 10.9653 23.5012 11.0639C23.5421 11.1625 23.5632 11.2683 23.5632 11.375C23.5632 11.4818 23.5421 11.5875 23.5012 11.6862C23.4603 11.7848 23.4004 11.8744 23.3249 11.9499L10.0872 25.1875L43.875 25.1875C44.0905 25.1875 44.2972 25.2731 44.4496 25.4255C44.6019 25.5779 44.6875 25.7845 44.6875 26C44.6875 26.2155 44.6019 26.4222 44.4496 26.5746C44.2972 26.7269 44.0905 26.8125 43.875 26.8125H10.0872L23.3249 40.0502C23.4004 40.1257 23.4602 40.2153 23.5011 40.3139C23.542 40.4126 23.563 40.5183 23.563 40.625C23.563 40.7318 23.542 40.8375 23.5011 40.9361C23.4602 41.0348 23.4004 41.1244 23.3249 41.1999C23.2494 41.2754 23.1598 41.3353 23.0611 41.3761C22.9625 41.417 22.8568 41.438 22.75 41.438C22.6433 41.438 22.5376 41.417 22.4389 41.3761C22.3403 41.3353 22.2507 41.2754 22.1752 41.1999L7.55018 26.5749C7.47464 26.4994 7.41471 26.4098 7.37382 26.3112C7.33294 26.2125 7.31189 26.1068 7.31189 26C7.31189 25.8933 7.33294 25.7875 7.37382 25.6889C7.41471 25.5903 7.47464 25.5007 7.55018 25.4252L22.1752 10.8002C22.2506 10.7246 22.3403 10.6647 22.4389 10.6238C22.5375 10.5829 22.6433 10.5619 22.75 10.5619C22.8568 10.5619 22.9625 10.5829 23.0612 10.6238C23.1598 10.6647 23.2494 10.7246 23.3249 10.8002Z" fill="#EFEDE4"/>
</svg>
