<svg width="28" height="27" viewBox="0 0 28 27" fill="none" xmlns="http://www.w3.org/2000/svg">
<path d="M13.8495 16.1344C13.4313 16.1344 13.0414 16.0615 12.6794 15.9161C12.3167 15.7705 11.9984 15.5678 11.724 15.3081C11.4499 15.0486 11.2361 14.7425 11.0824 14.3893C10.929 14.0365 10.8522 13.6629 10.8522 13.2681C10.8522 12.8732 10.929 12.5051 11.0822 12.1631C11.2358 11.8204 11.4497 11.5193 11.724 11.2597C11.9984 11 12.3167 10.7973 12.6794 10.6516C13.0414 10.5062 13.4313 10.4334 13.8495 10.4334C14.6855 10.4334 15.393 10.7088 15.9749 11.2597C16.5567 11.8104 16.8468 12.4789 16.8468 13.2681C16.8468 13.6629 16.77 14.0365 16.6165 14.3893C16.4628 14.7425 16.249 15.0486 15.9749 15.3081C15.7006 15.5678 15.3822 15.7705 15.0196 15.9161C14.6575 16.0615 14.2676 16.1344 13.8495 16.1344ZM18.7805 13.2681C18.7805 13.0762 18.7692 12.8792 18.7467 12.677C18.7268 12.4975 18.6979 12.3301 18.6601 12.175H19.9244V18.4929C19.9244 18.6504 19.873 18.7748 19.7718 18.8705C19.6704 18.9665 19.5377 19.016 19.3692 19.016H8.32975C8.16125 19.016 8.02851 18.9665 7.92711 18.8705C7.82595 18.7748 7.77451 18.6504 7.77451 18.4929V12.175H9.03885C9.00101 12.3301 8.97215 12.4975 8.95218 12.677C8.9297 12.8792 8.91844 13.0762 8.91844 13.2681C8.91844 13.9079 9.04805 14.5161 9.30728 15.0923C9.5661 15.6675 9.91515 16.1685 10.3544 16.595C10.794 17.0217 11.3177 17.3574 11.9251 17.6023C12.533 17.8474 13.1746 17.9699 13.8495 17.9699C14.5243 17.9699 15.1659 17.8474 15.7738 17.6023C16.3812 17.3574 16.905 17.0217 17.3445 16.595C17.7838 16.1685 18.1328 15.6675 18.3916 15.0923C18.6509 14.5161 18.7805 13.9079 18.7805 13.2681ZM13.9833 0.046911C15.9178 0.046911 17.7293 0.394175 19.4182 1.08837C21.1082 1.78296 22.5864 2.72464 23.8532 3.91329C25.1199 5.10184 26.12 6.49542 26.8534 8.09439C27.5865 9.69241 27.9531 11.4062 27.9531 13.2364C27.9531 15.0665 27.5865 16.7804 26.8534 18.3784C26.1199 19.9774 25.1199 21.3763 23.8531 22.5754C22.5862 23.7746 21.1081 24.7215 19.4182 25.4161C17.7293 26.1103 15.9178 26.4575 13.9833 26.4575C12.0488 26.4575 10.2373 26.1103 8.5483 25.4161C6.85848 24.7215 5.38598 23.7747 4.13037 22.5756C2.87466 21.3764 1.8801 19.9775 1.14658 18.3784C0.413549 16.7804 0.046911 15.0665 0.046911 13.2364C0.046911 11.4062 0.413549 9.69241 1.14658 8.09439C1.88008 6.49534 2.8746 5.10171 4.13022 3.91315C5.38585 2.72459 6.85839 1.78295 8.5483 1.08837C10.2373 0.394175 12.0488 0.046911 13.9833 0.046911ZM21.8581 7.47317C21.8581 6.97457 21.6743 6.55064 21.3082 6.20413C20.9423 5.85772 20.4957 5.68463 19.9713 5.68463H7.7276C7.20324 5.68463 6.75665 5.85772 6.39069 6.20413C6.02463 6.55064 5.84078 6.97457 5.84078 7.47317V19.0629C5.84078 19.5615 6.02463 19.9855 6.39069 20.332C6.75665 20.6784 7.20324 20.8515 7.7276 20.8515H19.9713C20.4957 20.8515 20.9423 20.6784 21.3082 20.332C21.6743 19.9855 21.8581 19.5615 21.8581 19.0629V7.47317ZM19.3692 7.52009C19.5363 7.52009 19.6686 7.57398 19.7702 7.67983C19.8729 7.78674 19.9244 7.9174 19.9244 8.07483V9.81646C19.9244 9.97388 19.873 10.0983 19.7718 10.194C19.6704 10.29 19.5377 10.3395 19.3692 10.3395H17.5293C17.3608 10.3395 17.2215 10.29 17.1083 10.1926C16.9965 10.0964 16.9406 9.97236 16.9406 9.81646V8.07483C16.9406 7.91883 16.9966 7.78866 17.1099 7.68141C17.2233 7.57404 17.3621 7.52009 17.5293 7.52009H19.3692Z" fill="black" stroke="black" stroke-width="0.093822"/>
</svg>
