<svg width="29" height="28" viewBox="0 0 29 28" fill="none" xmlns="http://www.w3.org/2000/svg">
<path d="M20.444 5.98753V5.48753H19.944H16.8677C16.2131 5.48753 15.5982 5.59496 15.028 5.81574C14.4724 6.0309 13.9786 6.3209 13.5517 6.68825C13.1254 7.05507 12.7887 7.47751 12.5493 7.95593C12.3113 8.43153 12.1853 8.9221 12.1853 9.423V10.6571H9.95471H9.45471V11.1571V14.5598V15.0598H9.95471H12.1853V21.4308V21.9308H12.6853H16.3147H16.8147V21.4308V15.0598H19.0107H19.5107V14.5598V11.1571V10.6571H19.0107H16.8147V10.2737C16.8147 10.1792 16.8411 10.1235 16.9291 10.0621C17.1138 9.93327 17.2017 9.923 17.2133 9.923H19.944H20.444V9.423V5.98753ZM14.4827 0.5C16.4261 0.5 18.2454 0.848586 19.9451 1.54261C21.6536 2.24028 23.1386 3.18898 24.4048 4.38752C25.6714 5.58647 26.6709 6.98438 27.4049 8.58447C28.1341 10.1741 28.5 11.8804 28.5 13.7092C28.5 15.5379 28.1341 17.2501 27.4044 18.8513C26.6703 20.4622 25.6708 21.8651 24.4048 23.0635C23.1386 24.262 21.6536 25.2107 19.9451 25.9084C18.2454 26.6024 16.4261 26.951 14.4827 26.951C12.5393 26.951 10.7262 26.6024 9.03871 25.9088C7.3416 25.2113 5.86194 24.2626 4.59521 23.0635C3.32918 21.8651 2.32973 20.4622 1.59563 18.8513C0.865907 17.2501 0.5 15.5379 0.5 13.7092C0.5 11.8804 0.865904 10.1741 1.59511 8.58447C2.32909 6.98438 3.32861 5.58647 4.59521 4.38752C5.86194 3.18846 7.3416 2.23972 9.03871 1.54218C10.7262 0.84859 12.5393 0.5 14.4827 0.5Z" fill="black" stroke="black"/>
</svg>
