<svg width="22" height="22" viewBox="0 0 22 22" fill="none" xmlns="http://www.w3.org/2000/svg">
<path d="M8.25 9.16683L11.1748 11.3604C11.5932 11.6743 12.1829 11.6126 12.5273 11.2189L18.3333 4.5835" stroke="black" stroke-width="2" stroke-linecap="round"/>
<path d="M19.25 11C19.25 12.7238 18.7101 14.4043 17.706 15.8054C16.7019 17.2066 15.2842 18.2581 13.6519 18.8122C12.0196 19.3663 10.2547 19.3951 8.60515 18.8948C6.95559 18.3944 5.50421 17.3899 4.45484 16.0223C3.40546 14.6547 2.81082 12.9928 2.75442 11.2699C2.69802 9.54707 3.18269 7.84982 4.14038 6.41655C5.09806 4.98327 6.48064 3.88598 8.09394 3.27878C9.70724 2.67157 11.4702 2.58496 13.1353 3.03111" stroke="black" stroke-width="2" stroke-linecap="round"/>
</svg>
